<svg width="0" height="0" class="hidden">
  <symbol xmlns="http://www.w3.org/2000/svg" viewBox="0 0 97.75 97.75" id="facebook">
    <path d="M48.875 0C21.882 0 0 21.882 0 48.875S21.882 97.75 48.875 97.75 97.75 75.868 97.75 48.875 75.868 0 48.875 0zm18.646 24.89l-6.76.003c-5.301 0-6.326 2.519-6.326 6.215v8.15h12.641l-.006 12.765H54.436v32.758H41.251V52.023H30.229V39.258h11.022v-9.414c0-10.925 6.675-16.875 16.42-16.875l9.851.015V24.89h-.001z"></path>
  </symbol>
  <symbol xmlns="http://www.w3.org/2000/svg" viewBox="0 0 97.75 97.75" id="google-plus">
    <path d="M50.729 33.67c0-6.775-4.039-17.311-11.826-17.311-2.448 0-5.071 1.222-6.577 3.105-1.598 1.979-2.062 4.511-2.062 6.965 0 6.3 3.658 16.741 11.736 16.741 2.345 0 4.872-1.123 6.382-2.63 2.159-2.171 2.347-5.175 2.347-6.87zm-5.072 24.744c-.748-.094-1.218-.094-2.156-.094-.847 0-5.918.185-9.859 1.511-2.064.748-8.071 3.008-8.071 9.687 0 6.682 6.478 11.485 16.522 11.485 9.015 0 13.804-4.338 13.804-10.163-.001-4.813-3.099-7.344-10.24-12.426z"></path>
    <path d="M48.875 0C21.882 0 0 21.882 0 48.875S21.882 97.75 48.875 97.75 97.75 75.868 97.75 48.875 75.868 0 48.875 0zM37.489 84.945c-13.616 0-20.184-6.488-20.184-13.455 0-3.385 1.687-8.18 7.227-11.475 5.818-3.576 13.709-4.043 17.936-4.334-1.319-1.692-2.816-3.479-2.816-6.395 0-1.597.47-2.539.934-3.669-1.034.096-2.062.188-3.002.188-9.948 0-15.581-7.438-15.581-14.775 0-4.322 1.969-9.124 6.005-12.605 5.354-4.422 12.67-5.622 17.744-5.622H64.25l-6.105 3.836h-5.816c2.158 1.786 6.658 5.549 6.658 12.703 0 6.957-3.938 10.259-7.879 13.36-1.223 1.221-2.632 2.538-2.632 4.611 0 2.065 1.41 3.193 2.44 4.047l3.383 2.628c4.132 3.479 7.888 6.679 7.886 13.177-.001 8.847-8.55 17.78-24.696 17.78zm40.516-37.22v9.464h-4.646v-9.464h-9.393v-4.697h9.393v-9.406h4.646v9.406h9.438v4.697h-9.438z"></path>
  </symbol>
  <symbol xmlns="http://www.w3.org/2000/svg" viewBox="0 0 97.75 97.75" id="pinterest">
    <path d="M48.875 0C21.883 0 0 21.882 0 48.875S21.883 97.75 48.875 97.75 97.75 75.868 97.75 48.875 75.867 0 48.875 0zm5.624 65.109c-4.521 0-8.773-2.444-10.229-5.219 0 0-2.432 9.645-2.943 11.506-1.813 6.58-7.146 13.162-7.561 13.701-.289.375-.928.258-.994-.24-.113-.838-1.475-9.139.127-15.909.801-3.4 5.383-22.814 5.383-22.814s-1.334-2.673-1.334-6.625c0-6.205 3.596-10.837 8.074-10.837 3.807 0 5.645 2.859 5.645 6.286 0 3.828-2.436 9.552-3.693 14.856-1.051 4.441 2.225 8.064 6.605 8.064 7.933 0 13.272-10.188 13.272-22.261 0-9.174-6.176-16.044-17.418-16.044-12.697 0-20.615 9.471-20.615 20.052 0 3.646 1.078 6.221 2.764 8.21.773.915.883 1.283.602 2.333-.203.771-.66 2.625-.854 3.358-.279 1.062-1.137 1.44-2.098 1.049-5.846-2.387-8.572-8.793-8.572-15.994 0-11.893 10.029-26.154 29.922-26.154 15.985 0 26.506 11.566 26.506 23.984.001 16.428-9.132 28.698-22.589 28.698z"></path>
  </symbol>
  <symbol xmlns="http://www.w3.org/2000/svg" viewBox="0 0 97.75 97.75" id="twitter">
    <path d="M48.875 0C21.882 0 0 21.882 0 48.875S21.882 97.75 48.875 97.75 97.75 75.868 97.75 48.875 75.868 0 48.875 0zM78.43 35.841c.023.577.035 1.155.035 1.736 0 20.878-15.887 42.473-42.473 42.473a42.306 42.306 0 0 1-22.883-6.708.36.36 0 0 1-.145-.427.365.365 0 0 1 .383-.237c1.148.137 2.322.205 3.487.205 6.323 0 12.309-1.955 17.372-5.664a15.157 15.157 0 0 1-13.161-10.478.364.364 0 0 1 .073-.351.365.365 0 0 1 .339-.115 14.55 14.55 0 0 0 5.04.072c-6.259-1.945-10.658-7.808-10.658-14.483l.002-.194a.362.362 0 0 1 .537-.309 14.493 14.493 0 0 0 5.291 1.711A15.144 15.144 0 0 1 15.96 31.21c0-2.682.71-5.318 2.054-7.623a.36.36 0 0 1 .284-.178.354.354 0 0 1 .309.132c7.362 9.03 18.191 14.59 29.771 15.305a15.344 15.344 0 0 1-.291-2.985c0-8.361 6.802-15.162 15.162-15.162 4.11 0 8.082 1.689 10.929 4.641a29.23 29.23 0 0 0 9.09-3.508.363.363 0 0 1 .41.028c.116.094.164.25.118.394a15.14 15.14 0 0 1-5.33 7.489 29.15 29.15 0 0 0 6.831-2.072.361.361 0 0 1 .447.533 30.22 30.22 0 0 1-7.314 7.637z"></path>
  </symbol>
</svg>