<!-- Generated by IcoMoon.io -->
<svg version="1.1" xmlns="http://www.w3.org/2000/svg" width="24" height="32" viewBox="0 0 24 32">
<title>pinterest</title>
<path d="M10.173 20.771c-0.261 1.049-0.525 2.136-0.797 3.197-0.268 1.217-0.576 2.249-0.95 3.249l0.054-0.163c-0.652 1.69-1.513 3.148-2.574 4.436l0.022-0.027c-0.718 0.824-0.566 0.5-0.782 0.45-0.165-0.037-0.179-0.2-0.211-0.425-0.055-0.61-0.086-1.319-0.086-2.035 0-0.752 0.034-1.496 0.102-2.231l-0.007 0.094c0.115-1.598 0.376-3.080 0.774-4.506l-0.038 0.159c0.605-2.573 1.182-5.096 1.792-7.694 0.063-0.162 0.104-0.35 0.112-0.546l0-0.004c-0.257-0.619-0.446-1.337-0.532-2.086l-0.003-0.037c-0.026-0.223-0.041-0.48-0.041-0.742 0-0.602 0.078-1.185 0.225-1.741l-0.011 0.047c0.268-1.324 1.155-2.395 2.34-2.913l0.026-0.010c0.262-0.091 0.565-0.144 0.88-0.144 0.471 0 0.914 0.118 1.302 0.326l-0.015-0.007c0.556 0.337 0.953 0.887 1.081 1.534l0.002 0.015c0.052 0.286 0.082 0.614 0.082 0.95 0 0.501-0.066 0.987-0.19 1.45l0.009-0.039c-0.334 1.524-0.772 2.673-1.17 4.134-0.181 0.472-0.286 1.018-0.286 1.589 0 0.237 0.018 0.47 0.053 0.698l-0.003-0.025c0.148 0.664 0.528 1.221 1.050 1.593l0.008 0.005c0.503 0.364 1.133 0.582 1.813 0.582 0.076 0 0.152-0.003 0.227-0.008l-0.010 0.001c1.384-0.127 2.572-0.868 3.301-1.945l0.010-0.016c1.168-1.641 1.928-3.647 2.090-5.819l0.002-0.039c0.068-0.527 0.107-1.137 0.107-1.756 0-0.265-0.007-0.529-0.021-0.791l0.002 0.037c-0.059-1.479-0.579-2.826-1.419-3.913l0.012 0.016c-0.803-0.985-1.869-1.727-3.091-2.123l-0.047-0.013c-0.885-0.274-1.903-0.432-2.958-0.432-0.608 0-1.205 0.053-1.784 0.153l0.062-0.009c-2.693 0.411-4.926 2.073-6.117 4.363l-0.022 0.046c-0.659 1.208-1.046 2.645-1.046 4.173 0 0.030 0 0.060 0 0.091l-0-0.005c-0.002 0.052-0.003 0.113-0.003 0.174 0 1.093 0.317 2.113 0.863 2.972l-0.013-0.022c0.166 0.25 0.41 0.462 0.572 0.749 0.040 0.156 0.064 0.334 0.064 0.518 0 0.338-0.078 0.658-0.218 0.943l0.006-0.013c-0.137 0.537-0.152 1.262-0.772 1.274-0.301-0.034-0.573-0.141-0.802-0.303l0.005 0.004c-1.635-1.003-2.772-2.683-3.022-4.64l-0.003-0.032c-0.118-0.607-0.185-1.304-0.185-2.017s0.067-1.411 0.196-2.086l-0.011 0.069c0.684-3.297 2.697-6.027 5.442-7.652l0.054-0.029c1.403-0.837 3.052-1.428 4.813-1.666l0.067-0.007c0.59-0.089 1.283-0.147 1.987-0.162l0.018-0c0.171-0.009 0.371-0.014 0.573-0.014 1.748 0 3.408 0.373 4.907 1.043l-0.076-0.030c1.461 0.655 2.7 1.562 3.714 2.676l0.008 0.009c1.044 1.139 1.834 2.526 2.273 4.063l0.017 0.072c0.292 0.849 0.472 1.829 0.499 2.847l0 0.013c-0.047 1.076-0.185 2.092-0.407 3.076l0.022-0.116c-0.421 3.337-2.201 6.191-4.759 8.033l-0.035 0.024c-1.324 0.865-2.945 1.38-4.686 1.38-0.109 0-0.218-0.002-0.326-0.006l0.016 0c-0.917-0.057-1.763-0.318-2.506-0.739l0.029 0.015c-0.69-0.365-1.25-0.896-1.637-1.543l-0.010-0.019z"></path>
</svg>
